<svg xmlns="http://www.w3.org/2000/svg" viewBox="0 0 324.41 81.62"><defs><style>.cls-1{fill:#00101f;}.cls-2{fill:#01d8ff;}.cls-3{fill:#fff;}.cls-4{fill:#f93746;}.cls-5{fill:#00f076;}.cls-6{fill:#fec601;}</style></defs><title>Asset 10</title><g id="Layer_2" data-name="Layer 2"><g id="Layer_1-2" data-name="Layer 1"><rect class="cls-1" width="324.41" height="81.62" rx="18.26"/><path class="cls-2" d="M43.54,66.58a3.72,3.72,0,0,1-.85-2.48c0-.44,0-.88,0-1.32q0-22.68,0-45.35c0-.64.05-1.28.06-1.92a2.08,2.08,0,0,1,1-1.83,15.43,15.43,0,0,0,1.94,2.18c1.67,1.6,3.24,3.32,5,4.86a32.76,32.76,0,0,1,3,3.1,44.13,44.13,0,0,0,3.4,3.3c1.67,1.56,3.25,3.23,4.87,4.85a6,6,0,0,1,.54.59,13.92,13.92,0,0,0,2.1,2.17c1.92,1.7,3.68,3.54,5.44,5.4-.22.24-.43.5-.67.74q-5.93,5.94-11.86,11.87c-1.49,1.5-3,3-4.51,4.47L44.3,65.93A2.5,2.5,0,0,1,43.54,66.58Z"/><path class="cls-3" d="M124.38,41.27a2.05,2.05,0,0,0-1.07-.13h-6.77c-1,0-1,0-1-1.07,0-.71,0-1.41,0-2.12,0-.33.13-.51.47-.5h.51c3.53,0,7.07,0,10.61,0,1,0,1,0,1.11,1.06a15.14,15.14,0,0,1-1,6.52,11.42,11.42,0,0,1-3.66,4.71c-2.94,2.37-6.37,2.77-10,2.41a12,12,0,0,1-4.46-1.27,14.1,14.1,0,0,1-6-6.07,13.93,13.93,0,0,1-1.26-8.06A12.48,12.48,0,0,1,105.73,29a13.24,13.24,0,0,1,8.35-3.83,13.42,13.42,0,0,1,7,1.05,15.17,15.17,0,0,1,3.36,2.19c.32.26.39.48,0,.8-.67.63-1.3,1.28-1.94,1.93-.24.24-.44.36-.75,0a8.11,8.11,0,0,0-5.53-2.35,9.68,9.68,0,0,0-10.21,7.55,9.8,9.8,0,0,0,5.75,11.44,9.45,9.45,0,0,0,10.06-1.45A7.15,7.15,0,0,0,124.38,41.27Z"/><path class="cls-4" d="M43.54,66.58a2.5,2.5,0,0,0,.76-.65L53,57.21c1.5-1.5,3-3,4.51-4.47q5.94-5.93,11.86-11.87c.24-.24.45-.5.67-.74h.16c.25.28.49.56.74.81,2.46,2.47,4.92,4.92,7.37,7.39.25.25.58.46.65.86-1.35.76-2.7,1.51-4,2.28-1.18.68-2.33,1.39-3.51,2.06s-2.37,1.31-3.55,2-2.46,1.43-3.71,2.11c-1.71.92-3.37,1.92-5,2.91-2.28,1.36-4.64,2.54-6.9,3.93-1.52.93-3.1,1.79-4.69,2.62-1,.54-3.3.6-3.87-.3A1,1,0,0,1,43.54,66.58Z"/><path class="cls-5" d="M70.17,40.13H70c-1.76-1.86-3.52-3.7-5.44-5.4a13.92,13.92,0,0,1-2.1-2.17,6,6,0,0,0-.54-.59c-1.62-1.62-3.2-3.29-4.87-4.85a44.13,44.13,0,0,1-3.4-3.3,32.76,32.76,0,0,0-3-3.1c-1.74-1.54-3.31-3.26-5-4.86a15.43,15.43,0,0,1-1.94-2.18,3,3,0,0,1,3.42-.41c1.23.59,2.43,1.26,3.62,1.93,2.27,1.28,4.52,2.59,6.78,3.88,2.81,1.6,5.62,3.21,8.44,4.8,2.67,1.52,5.35,3,8,4.53,1.65.94,3.29,1.91,4.93,2.86l-8,8.05A3.55,3.55,0,0,0,70.17,40.13Z"/><path class="cls-3" d="M168.63,55c1-.43,2-.87,3-1.26.36-.14.51.12.69.41a5.24,5.24,0,0,0,1.86,1.94,4.58,4.58,0,0,0,6.4-1.75,6.08,6.08,0,0,0,.56-3.8c-.3-.13-.41.14-.58.28a6.09,6.09,0,0,1-4.26,1.46,8,8,0,0,1-7.05-4.11,9.22,9.22,0,0,1-1.11-5.86,8,8,0,0,1,1.92-4.6c2.47-3.06,7.77-4.16,10.82-1.24,0,0,.11,0,.17.07s.12-.05.12-.13c.06-1.14.06-1.14,1.16-1.14h2c.34,0,.49.15.48.48,0,.17,0,.34,0,.51,0,5,0,10,0,15a10.85,10.85,0,0,1-1,4.59,7.35,7.35,0,0,1-4.21,3.81,10,10,0,0,1-3.75.45,7.55,7.55,0,0,1-6.44-3.59A15.88,15.88,0,0,1,168.63,55Zm12.8-11.47a5.43,5.43,0,0,0-.77-3.05,4.49,4.49,0,0,0-6.4-1.5,5.62,5.62,0,0,0-.39,8.83,4.54,4.54,0,0,0,7-1.52A5.42,5.42,0,0,0,181.43,43.52Z"/><path class="cls-6" d="M70.17,40.13a3.55,3.55,0,0,1,.74-.81l8-8c1.59.71,3,1.68,4.55,2.51,1.87,1,3.71,2.09,5.57,3.15a5.49,5.49,0,0,1,2.11,1.81A2.51,2.51,0,0,1,90.88,42a8.41,8.41,0,0,1-2.28,1.75c-1.89,1.1-3.79,2.17-5.69,3.24l-4,2.24c-.07-.4-.4-.61-.65-.86-2.45-2.47-4.91-4.92-7.37-7.39C70.66,40.69,70.42,40.41,70.17,40.13Z"/><path class="cls-3" d="M217.15,38.85V27.13c0-.23,0-.47,0-.71s.17-.48.5-.47c.17,0,.33,0,.5,0,2.7,0,5.39,0,8.08,0a8.69,8.69,0,0,1,6.56,2.79,7.57,7.57,0,0,1,1.91,6.62,7.12,7.12,0,0,1-2.37,4.32,7.89,7.89,0,0,1-5,2.23c-1.82,0-3.64,0-5.46,0-.86,0-.87,0-.87.91,0,2.66,0,5.32,0,8,0,.93,0,.93-1,.94h-1.82c-1.06,0-1.06,0-1.06-1,0-2,0-3.91,0-5.86ZM221,34c0,1.28,0,2.55,0,3.83,0,.49.17.65.65.64h4.84a6.8,6.8,0,0,0,1.09-.15A4.51,4.51,0,0,0,231,33.6a4.38,4.38,0,0,0-4-4c-1.78-.08-3.57,0-5.35,0-.49,0-.63.2-.62.66C221,31.46,221,32.71,221,34Z"/><path class="cls-3" d="M254.37,49.75c-.48.45-.82.73-1.1,1A4.55,4.55,0,0,1,250,52.23a6.7,6.7,0,0,1-5-1.3,4.49,4.49,0,0,1-2-3.43c0-.61,0-1.21,0-1.81a4.39,4.39,0,0,1,2.3-3.54,9.35,9.35,0,0,1,8.19-.8c.25.08.5.19.84.32a2.68,2.68,0,0,0-1.26-2.5,4.7,4.7,0,0,0-5.14-.32,3.48,3.48,0,0,0-1,.95c-.17.22-.34.31-.59.2l-3-1.3c.93-2.4,2.85-3.37,5.12-3.83a9.89,9.89,0,0,1,4.49.18,6.61,6.61,0,0,1,5.13,6.18c.05,3.26,0,6.53,0,9.79,0,.55-.25.69-.74.68-.77,0-1.55,0-2.32,0-.46,0-.7-.14-.66-.64S254.37,50.33,254.37,49.75Zm-3.19-5.84a5.72,5.72,0,0,0-3.13.66,2.27,2.27,0,0,0-1.21,2.25,2,2,0,0,0,1.58,1.75,4.63,4.63,0,0,0,5.87-3.28.59.59,0,0,0-.4-.78A6,6,0,0,0,251.18,43.91Z"/><path class="cls-3" d="M138.3,52.26c-4.81.28-8.82-3.89-8.75-8.89a8.83,8.83,0,1,1,8.75,8.89Zm.13-14a4.46,4.46,0,0,0-3.38,1.34,5.68,5.68,0,0,0-.17,7.7,4.79,4.79,0,0,0,6.34.62,5.11,5.11,0,0,0,2.09-3.67C143.74,40.75,141.2,38.12,138.43,38.24Z"/><path class="cls-3" d="M157.44,52.26a8.44,8.44,0,0,1-8.63-8.94c.13-5.24,3.88-8.63,9-8.55a8.75,8.75,0,1,1-.34,17.49Zm.2-3.45a4.2,4.2,0,0,0,2.14-.51,5.54,5.54,0,0,0,1.13-8.79,4.8,4.8,0,0,0-6.59,0,5.67,5.67,0,0,0-.52,7.39A4.73,4.73,0,0,0,157.64,48.81Z"/><path class="cls-3" d="M197.8,46.23c1.11,3,5.78,3.83,8.41.16l2.66,1.75c.35.23.22.45,0,.74a8.5,8.5,0,0,1-4,2.93,9.2,9.2,0,0,1-3.75.44,7.7,7.7,0,0,1-6.45-3.59,7.55,7.55,0,0,1-1.44-4.26,12.64,12.64,0,0,1,.24-3.58,8.11,8.11,0,0,1,12.36-4.69,9.65,9.65,0,0,1,3.34,4.69c.19.51-.12.68-.46.82-1,.43-2,.83-3,1.24l-7.32,3C198.26,46,198,46.11,197.8,46.23Zm-.59-3c2.61-1.09,5.15-2.08,7.64-3.21a3.57,3.57,0,0,0-4.39-1.65A4.6,4.6,0,0,0,197.21,43.18Z"/><path class="cls-3" d="M258.38,35.25c1.25,0,2.42,0,3.6,0a.67.67,0,0,1,.72.53c.83,2.08,1.7,4.14,2.55,6.21l1.55,3.81c.06.13.08.34.4.35.44-1.08.9-2.19,1.34-3.31.92-2.33,1.83-4.67,2.74-7a.74.74,0,0,1,.72-.58h3.79a10,10,0,0,1-.89,2.31c-1.94,4.52-3.91,9-5.87,13.53-1.14,2.64-2.29,5.27-3.44,7.91-.14.33-.3.57-.73.56-1,0-1.95,0-2.93,0-.44,0-.53-.22-.45-.57a3.87,3.87,0,0,1,.3-.73c.93-1.91,1.78-3.85,2.6-5.81a1,1,0,0,1,.12-.27c.91-1,.39-2-.06-2.92-.71-1.49-1.3-3-2-4.53s-1.19-2.88-1.89-4.28a38.07,38.07,0,0,1-1.67-3.82C258.71,36.21,258.35,35.84,258.38,35.25Z"/><path class="cls-3" d="M237,38.89V27.27c0-.23,0-.47,0-.71,0-.4.11-.62.56-.61.91,0,1.82,0,2.73,0,.37,0,.57.13.55.52s0,.47,0,.71V51c0,.74,0,.75-.72.77h-2.32c-.79,0-.8,0-.81-.78,0-1,0-2,0-3Z"/><path class="cls-3" d="M191.36,38.83V50.35c0,.27,0,.54,0,.81s-.14.58-.53.58H188.1c-.39,0-.54-.2-.54-.56V27.11c0-.16,0-.33,0-.5,0-.46.14-.68.64-.66q1.26,0,2.52,0c.5,0,.67.19.64.66,0,.23,0,.47,0,.7Z"/></g></g></svg>