<svg xmlns="http://www.w3.org/2000/svg" viewBox="0 0 61.76 18.11"><defs><style>.cls-1{fill:#00adee;}</style></defs><title>car</title><g id="Layer_2" data-name="Layer 2"><g id="Layer_1-2" data-name="Layer 1"><path class="cls-1" d="M4.57,4.69c-.51-.69-1-1.34-1.46-2-.1-.13-.27-.11-.41-.12A4.9,4.9,0,0,1,.23,1.53C.1,1.44-.06,1.32,0,1.13S.26,1,.41,1A23.42,23.42,0,0,1,3.3,1.2c.87.08,1.75.19,2.62.28a2.07,2.07,0,0,1,1.4.67c.17.18.35.39.2.66s-.38.24-.62.22L5.54,2.89,6.68,4.44a.18.18,0,0,0,.19.08,5.08,5.08,0,0,0,1.71-.29A37.69,37.69,0,0,1,28.44.09a22.4,22.4,0,0,1,9.93,3q2.15,1.25,4.37,2.37a2.31,2.31,0,0,0,1,.24c2.24,0,4.49,0,6.72.25a6.33,6.33,0,0,1,3.35,1.2.75.75,0,0,0,.46.13A12.16,12.16,0,0,1,58,8.2,5.47,5.47,0,0,1,61.34,15a.94.94,0,0,0,.17,1,1,1,0,0,1-.57,1.59,4.29,4.29,0,0,1-.79.11c-1.59.08-3.19,0-4.9,0A4.88,4.88,0,0,0,56.74,13a4.73,4.73,0,0,0-1.86-2.8,4.83,4.83,0,0,0-6.74,6.77H16.86l.46-.49A4.78,4.78,0,0,0,18.18,11a4.84,4.84,0,1,0-8.7,4.25c.14.28.1.36-.2.43a24.5,24.5,0,0,1-2.92.63,6.72,6.72,0,0,1-3.85-.63,2.2,2.2,0,0,1-1.37-1.9.33.33,0,0,0-.08-.24,1.22,1.22,0,0,1-.27-1.22c.06-.4.09-.81.11-1.22a1.39,1.39,0,0,1,.4-.94,2.17,2.17,0,0,0,.47-1.3A15.84,15.84,0,0,0,2,5.76.66.66,0,0,1,2.59,5Z"/><path class="cls-1" d="M52.05,18.11A4.11,4.11,0,1,1,56.18,14,4.09,4.09,0,0,1,52.05,18.11Zm.17-1.64c.05.19-.08.45.07.67a2,2,0,0,0,1.15-.3,2.43,2.43,0,0,0-.77-1.21C52.08,15.65,52.24,16.08,52.22,16.47Zm2.45-.64c0-.15-.07-.18-.15-.22-.24-.14-.49-.26-.71-.42s-.41-.11-.59.09-.14.21,0,.34c.23.33.32.76.67,1C53.94,16.67,54.67,15.93,54.67,15.83Zm-5.06-2h.22c.25,0,.46,0,.55-.31s-.12-.4-.31-.51l-.42-.24c-.45-.26-.45-.26-.61.23C48.77,13.86,48.78,13.86,49.61,13.86Zm2.61-2.35v.27c0,.24,0,.45.32.55s.39-.14.51-.33.15-.24.22-.37c.28-.49.27-.5-.26-.66C52.25,10.73,52.22,10.75,52.22,11.51Zm2.51.78a1.94,1.94,0,0,0-.84-.86c-.25-.1-.26.28-.39.43s-.13.26-.23.37-.11.42.1.62a.24.24,0,0,0,.37,0Zm-4.17,2.77a4.17,4.17,0,0,0-1,.66c-.18.2.21.42.38.59s.23.36.49.27c0,0,0-.06.08-.1l.48-.84C51,15.47,50.79,15.07,50.56,15.06Zm-.3-3.66a1.7,1.7,0,0,0-.77.8c-.09.26.3.27.47.41s.25.14.37.22.34.14.47-.06.28-.17.16-.35a4.83,4.83,0,0,0-.65-1Zm4.22,2.46h.38c.15,0,.37.08.37-.22s-.25-1-.39-1l-.09,0-.94.55c-.11.06-.1.15-.09.26C53.76,14,54.2,13.82,54.48,13.86Zm-2.56-2.27c0-.16,0-.31,0-.46s-.08-.33-.31-.27-.73,0-.94.41a.28.28,0,0,0,0,.08c.17.29.34.58.5.87.07.12.15.13.29.12C52.05,12.3,51.89,11.89,51.92,11.59Zm3.3,2.85c0-.15,0-.28-.21-.27H54c-.24,0-.22.18-.27.32s-.09.28.1.36a2.33,2.33,0,0,1,.34.2C55,15.5,55.16,15.38,55.22,14.44Zm-3.3,2.06c0-.14,0-.29,0-.43a.33.33,0,0,0-.28-.4.34.34,0,0,0-.48.22,4.76,4.76,0,0,1-.28.49c-.28.5-.28.5.29.67C51.91,17.27,51.92,17.27,51.92,16.5Zm-3-2.09c.05.2.11.4.15.6.08.36.23.52.58.24a3.81,3.81,0,0,1,.65-.38c.21-.1.15-.24.1-.4s-.05-.32-.29-.3h-1C49,14.17,48.87,14.23,48.9,14.41Z"/><path class="cls-1" d="M13.88,9.08a4.11,4.11,0,1,1-4.15,4.08A4.1,4.1,0,0,1,13.88,9.08Zm-2.51,4h.26c.23,0,.44,0,.53-.3s-.09-.41-.3-.52L11.48,12c-.51-.29-.52-.29-.68.27C10.57,13,10.58,13.05,11.37,13.05Zm4.85,0h.57c.13,0,.23,0,.22-.19a2.86,2.86,0,0,0-.27-1c0-.1-.12-.11-.21-.06l-.94.54c-.11.07-.1.15-.1.26C15.53,13.19,16,13,16.22,13Zm.78.57c.05-.19,0-.27-.26-.27h-.92c-.23,0-.47.45-.32.6a2.2,2.2,0,0,0,.44.28C16.73,14.68,16.94,14.56,17,13.61Zm-5.61-.26H11c-.21,0-.3.06-.26.28a4.55,4.55,0,0,0,.23.8c.05.11.09.23.25.13l1-.55c.08,0,.08-.12.07-.22C12.16,13.2,11.73,13.37,11.39,13.35Zm5.08-1.91a1.39,1.39,0,0,0-.33-.46c-.52-.53-.53-.53-.89.1l-.18.31c-.14.2-.22.35,0,.59s.37.11.55,0l.65-.38C16.36,11.57,16.45,11.54,16.47,11.44Zm-4.4-.86a1.19,1.19,0,0,0-.44.33c-.54.52-.53.53.11.89L12,12c.17.09.3.25.52,0s.24-.36.08-.59-.25-.43-.38-.65C12.22,10.68,12.19,10.59,12.07,10.58ZM11.25,15a1.73,1.73,0,0,0,.79.77c.26.09.27-.3.4-.46s.14-.26.23-.37a.34.34,0,0,0-.05-.52c-.19-.2-.32-.17-.52,0s-.47.28-.71.42C11.32,14.84,11.22,14.87,11.25,15Zm4.09-.76c-.21,0-.49.37-.4.52.16.32.34.62.52.92,0,.1.12.17.24.09a2.82,2.82,0,0,0,.71-.71c0-.06.09-.14,0-.19ZM14,15.61c0,.14,0,.29,0,.44s.06.35.3.28.74,0,.93-.41c0,0,0-.05,0-.08l-.53-.91c-.06-.11-.14-.12-.26-.11C13.85,14.87,14,15.29,14,15.61Zm0-4.87A1.61,1.61,0,0,1,14,11c0,.24,0,.46.32.55s.39-.13.51-.31l.24-.42c.25-.45.25-.45-.24-.61C14,9.9,14,9.92,14,10.74Zm-.31.13v-.64c0-.13,0-.22-.21-.2a3.22,3.22,0,0,0-.92.25c-.07,0-.15.08-.11.16.2.36.4.71.61,1.06,0,.08.13,0,.2,0C13.83,11.5,13.67,11.08,13.69,10.87Zm0,4.77v-.31c0-.22,0-.4-.29-.48s-.39.1-.5.29-.17.3-.26.45c-.26.47-.26.47.26.63C13.66,16.47,13.69,16.45,13.69,15.64Z"/></g></g></svg>