<svg xmlns="http://www.w3.org/2000/svg" viewBox="0 0 28.48 28.48"><defs><style>.cls-1{fill:#00adee;}</style></defs><title>date</title><g id="Layer_2" data-name="Layer 2"><g id="Layer_1-2" data-name="Layer 1"><path class="cls-1" d="M24.68,2.22h-.41a.45.45,0,0,1-.46-.46V.46A.47.47,0,0,0,23.35,0H22a.47.47,0,0,0-.46.46v1.3a.45.45,0,0,1-.46.46H7.36a.45.45,0,0,1-.46-.46V.46A.47.47,0,0,0,6.44,0H5.13a.47.47,0,0,0-.46.46v1.3a.45.45,0,0,1-.46.46H3.8A3.8,3.8,0,0,0,0,6V24.68a3.8,3.8,0,0,0,3.8,3.8H24.68a3.8,3.8,0,0,0,3.8-3.8V6A3.8,3.8,0,0,0,24.68,2.22Zm1.57,22.46a1.57,1.57,0,0,1-1.57,1.57H3.8a1.57,1.57,0,0,1-1.58-1.57V10.92a.46.46,0,0,1,.47-.46h23.1a.45.45,0,0,1,.46.46ZM25.79,8.23H2.69a.46.46,0,0,1-.47-.46V6A1.57,1.57,0,0,1,3.8,4.45h.41a.46.46,0,0,1,.46.46v1.3a.46.46,0,0,0,.46.46H6.44a.46.46,0,0,0,.46-.46V4.91a.46.46,0,0,1,.46-.46H21.12a.46.46,0,0,1,.46.46v1.3a.46.46,0,0,0,.46.46h1.31a.46.46,0,0,0,.46-.46V4.91a.46.46,0,0,1,.46-.46h.41A1.57,1.57,0,0,1,26.25,6V7.77A.45.45,0,0,1,25.79,8.23Z"/><rect class="cls-1" x="22.03" y="12.79" width="2.22" height="2.22" rx="0.32"/><rect class="cls-1" x="17.58" y="12.79" width="2.22" height="2.22" rx="0.32"/><rect class="cls-1" x="13.13" y="12.79" width="2.22" height="2.22" rx="0.32"/><rect class="cls-1" x="8.68" y="12.79" width="2.22" height="2.22" rx="0.32"/><rect class="cls-1" x="4.23" y="12.79" width="2.22" height="2.22" rx="0.32"/><rect class="cls-1" x="22.03" y="17.36" width="2.22" height="2.22" rx="0.32"/><rect class="cls-1" x="17.58" y="17.36" width="2.22" height="2.22" rx="0.32"/><rect class="cls-1" x="13.13" y="17.36" width="2.22" height="2.22" rx="0.32"/><rect class="cls-1" x="8.68" y="17.36" width="2.22" height="2.22" rx="0.32"/><rect class="cls-1" x="4.23" y="17.36" width="2.22" height="2.22" rx="0.32"/><rect class="cls-1" x="13.13" y="21.92" width="2.22" height="2.22" rx="0.32"/><rect class="cls-1" x="8.68" y="21.92" width="2.22" height="2.22" rx="0.32"/><rect class="cls-1" x="4.23" y="21.92" width="2.22" height="2.22" rx="0.32"/></g></g></svg>