<svg xmlns="http://www.w3.org/2000/svg" viewBox="0 0 46.73 55.26"><defs><style>.cls-1{fill:#00adee;}</style></defs><title>delete</title><g id="Layer_2" data-name="Layer 2"><g id="Layer_1-2" data-name="Layer 1"><path class="cls-1" d="M23.36,13.27c5.75,0,11.51,0,17.27,0,1.1,0,1.46.16,1.32,1.42-.94,8.33-1.78,16.67-2.66,25q-.6,5.85-1.24,11.7a4.25,4.25,0,0,1-4.22,3.86q-10.57.06-21.16,0a4.24,4.24,0,0,1-4.18-3.9Q6.84,35.72,5.21,20.09c-.2-1.9-.37-3.82-.65-5.71-.14-.93.14-1.13,1-1.13C11.5,13.29,17.43,13.27,23.36,13.27ZM21,34.17v13.4c0,.33,0,.67,0,1a2.22,2.22,0,1,0,4.44,0c0-.2,0-.41,0-.62V20.58c0-.25,0-.5,0-.75a2.22,2.22,0,0,0-4.43,0,8.35,8.35,0,0,0,0,1ZM16.53,47.36h0q-1-13.29-2-26.56c-.16-2.15-.94-3.23-2.41-3.13s-2.21,1.3-2,3.49c.5,6.15,1,12.3,1.44,18.45.23,3,.46,6.07.72,9.1a2.19,2.19,0,1,0,4.38-.23C16.61,48.1,16.56,47.73,16.53,47.36Zm13.47,0h0c0,.25,0,.5-.05.75-.1,1.59.72,2.66,2.06,2.73s2.18-.87,2.31-2.41.24-2.82.35-4.23q.93-11.91,1.84-23.82a2.29,2.29,0,0,0-2.1-2.72c-1.27-.08-2.22.87-2.34,2.4Q31,33.72,30,47.37Z"/><path class="cls-1" d="M23.25,8.83c-7.31,0-14.61,0-21.91,0C.33,8.86,0,8.64,0,7.57c.07-2.5.7-3.18,3.23-3.18,3,0,5.93,0,8.89,0,.91,0,1.33-.2,1.19-1.17a4.2,4.2,0,0,1,0-1.12A2.14,2.14,0,0,1,15.54,0q7.7,0,15.39,0c1.55,0,2.28.92,2.31,2.65s0,1.72,1.73,1.72c3,0,5.93,0,8.89,0a2.91,2.91,0,0,1,2.62,4.1c-.23.55-.71.32-1.08.32q-6.63,0-13.27,0H23.25Z"/></g></g></svg>