<svg xmlns="http://www.w3.org/2000/svg" xmlns:xlink="http://www.w3.org/1999/xlink" viewBox="0 0 291.32 149.42"><defs><clipPath id="clip-path"><rect x="27.7" y="22.51" width="99.09" height="99.1" style="fill:none"/></clipPath><clipPath id="clip-path-2"><rect x="59.23" y="48.03" width="36.82" height="36.82" style="fill:none"/></clipPath><clipPath id="clip-path-3"><rect x="43.5" y="85.08" width="68.27" height="36.79" style="fill:none"/></clipPath><clipPath id="clip-path-4"><rect x="198.38" y="49.27" width="63.42" height="5.79" style="fill:#00adee"/></clipPath><clipPath id="clip-path-5"><rect x="240.59" y="93.35" width="21.22" height="5.79" style="fill:#00adee"/></clipPath><clipPath id="clip-path-6"><rect x="187.48" y="93.35" width="47.84" height="5.79" style="fill:#00adee"/></clipPath><clipPath id="clip-path-7"><rect x="172.19" y="71.3" width="89.61" height="5.79" style="fill:#00adee"/></clipPath></defs><g id="Layer_2" data-name="Layer 2"><g id="Layer_1-2" data-name="Layer 1"><rect x="0.5" y="0.5" width="290.32" height="148.42" rx="13.68" style="fill:none;stroke:#00adee;stroke-miterlimit:10"/><g style="opacity:0.5"><g style="clip-path:url(#clip-path)"><path d="M126.79,72.05A49.55,49.55,0,1,1,77.25,22.51a49.39,49.39,0,0,1,49.54,49.54" style="fill:#00adee"/></g></g><g style="opacity:0.800002992153168"><g style="clip-path:url(#clip-path-2)"><path d="M96.05,66.44A18.41,18.41,0,1,1,77.64,48,18.41,18.41,0,0,1,96.05,66.44" style="fill:#fff;opacity:0.5"/></g></g><g style="opacity:0.800002992153168"><g style="clip-path:url(#clip-path-3)"><path d="M111.78,107.45a47.6,47.6,0,0,1-68.28,0,37.24,37.24,0,0,1,68.28,0" style="fill:#fff;opacity:0.5"/></g></g><g style="opacity:0.2"><rect x="198.38" y="49.27" width="63.42" height="5.79" style="fill:#00adee"/><g style="clip-path:url(#clip-path-4)"><path d="M258.91,55.06H201.28a2.9,2.9,0,1,1,0-5.79h57.63a2.9,2.9,0,0,1,0,5.79" style="fill:#00adee"/></g></g><g style="opacity:0.2"><rect x="240.59" y="93.35" width="21.22" height="5.79" style="fill:#00adee"/><g style="clip-path:url(#clip-path-5)"><path d="M258.91,99.14H243.48a2.9,2.9,0,0,1,0-5.79h15.43a2.9,2.9,0,0,1,0,5.79" style="fill:#00adee"/></g></g><g style="opacity:0.2"><rect x="187.48" y="93.35" width="47.84" height="5.79" style="fill:#00adee"/><g style="clip-path:url(#clip-path-6)"><path d="M232.42,99.14h-42a2.9,2.9,0,1,1,0-5.79h42a2.9,2.9,0,1,1,0,5.79" style="fill:#00adee"/></g></g><g style="opacity:0.2"><rect x="172.19" y="71.3" width="89.61" height="5.79" style="fill:#00adee"/><g style="clip-path:url(#clip-path-7)"><path d="M258.91,77.09H175.09a2.9,2.9,0,1,1,0-5.79h83.82a2.9,2.9,0,0,1,0,5.79" style="fill:#00adee"/></g></g></g></g></svg>