<svg xmlns="http://www.w3.org/2000/svg" viewBox="0 0 227.95 177.24"><defs><style>.cls-1{fill:#00adee;}</style></defs><title>logo</title><g id="Layer_2" data-name="Layer 2"><g id="Layer_1-2" data-name="Layer 1"><path d="M149.12,65.59C142,64.63,134.4,74.16,133,83.1c-1.32,8.5,2.45,19.91,9.77,21.31,7.15,1.36,14.86-7.37,16.76-15.58C161.8,79.06,156.6,66.61,149.12,65.59Zm-3.8,25.23c-2.92-.29-6.19-2.54-6.48-5.8-.34-3.71,3.35-7,7.08-7.13s7.76,2.8,7.79,6.44C153.73,88.23,149.25,91.22,145.32,90.82Z"/><path d="M26.14,125.82s11.62-6.51,19.4-1.36,34.37,30.27,44.73,35.41c0,0,17.53,10.6,33,12.17,12.29,1.26,33,2.48,53-12.46,22.17-16.57,24.45-35.65,24.45-35.65s-21.95,11.07-34.24,9.82c-11.65-1.19-15.56-12.23-15.56-12.23s-5.77,13.59-14.83,11.68c-10.92-2.3-11.74-31-11.77-37.46S126.85,77,126.84,74.4c0-1.88-3.09-4.44-4.78-5.69a1.32,1.32,0,0,1-.26-1.84l4.4-5.9a1.22,1.22,0,0,0-.08-1.54l-4.41-4.87a1.22,1.22,0,0,1,0-1.66l6-6.52a1.31,1.31,0,0,1,1.93-.06L136,52.83a1.21,1.21,0,0,1,.12,1.8l-5.23,5.27a1.28,1.28,0,0,0,0,1.81l4.26,4.23a1.07,1.07,0,0,1,.1,1.42L129.43,75s-.58,22,.74,28.45,2.64,14.86,8.46,16.14c4.79,1,10.86-6.22,12.87-8.84a.94.94,0,0,1,1.44-.06c2.72,3,12.2,12.59,19.32,12,6.71-.54,19.57-5.22,24.5-7.08a.9.9,0,0,0,.05-1.65c-5-2.24-18.37-8-22-7.45-2.57.38-5.36,2.44-7.28,4.14a.51.51,0,0,1-.79-.63c1.91-3.5,5-9.1,6.76-11.26,2.57-3.24,5.79-7.13,5.13-11.66s-6.5-9.67-6.5-9.67l-22.7-20a75.18,75.18,0,0,1-14.27-14.83c-6.5-9-6.54-22-5.91-27.13S137.58,0,137.58,0s-1.42,6.83.68,11A35,35,0,0,0,150,25.18c5.67,4.09,21.39,16.09,32.42,25.75s18.18,22.57,21.44,30.32,5.25,22.61,5.25,22.61a5.43,5.43,0,0,1-5.83-1.27c-1.94-1.93-2-5.81-2-5.81s-4.82-13.47-11.71-22.6C181.76,63.86,147.28,37,143.51,33.6c-6.49-5.8-7.66-11.82-9.25-14.6a.2.2,0,0,0-.37.12c.45,3,3.4,12.17,7.69,16.43,5.19,5.15,25.29,22.55,30.48,27.7s13.45,14.72,13,21.29a19.62,19.62,0,0,1-6.42,13.6s9.38.46,14.88,3.19c5.18,2.57,14.89,6.41,20.71,6.39l13.58,0s1.31,5.17-4.5,8.42-13.4,4.48-15.93,5a1.47,1.47,0,0,0-1.09,1c-.84,3-4,13.48-10,21.17-7.09,9.07-17.38,22.69-40.64,30.52s-51.73-.47-51.73-.47-25.89-9-41.46-23.14c-16.22-14.77-25.93-21.89-28.52-23.18S26.14,125.82,26.14,125.82Z"/><path class="cls-1" d="M2.21,123.31a80.07,80.07,0,0,1,5.14-9.72l5.15-7.77a60.89,60.89,0,0,0,7.78,6.44c3.88,2.57,8.42,5.79,8.42,5.79a48.19,48.19,0,0,0-5.2-9.68,46.39,46.39,0,0,0-7.14-7.74s6.45-4.55,9-5.2,9.69-4.56,9.69-4.56a2.4,2.4,0,0,0-1.95-1.29,29,29,0,0,0-6.46,1.32c-1.23.41-2.58.65-2.59,0s-.65-1.94-1.94-1.29,0,2.59-1.93,2.59-2.59-1.93-3.89-1.28-.63,3.24-3.22,3.25A9,9,0,0,1,8.57,92.9L4.68,89a3.08,3.08,0,0,0-3.88.66,2.28,2.28,0,0,0-.64,2.59l5.2,6.45a3.14,3.14,0,0,1,0,2.59,7.92,7.92,0,0,1-1.29,1.94H3.43a1.26,1.26,0,0,0-1.28,1.3c0,.91,1.3,1.93,1.3,1.93s.64.65,0,1.94-1.94.66-2.58,1.95.66,2.59.66,4.53S.9,119.44.9,120.08s-.44,2.78,0,3.24A.9.9,0,0,0,2.21,123.31Z"/><path d="M130.34,153.92a12.42,12.42,0,0,1,1.27-7.77,11,11,0,0,1,1.93-2.59c7.78-1.09,13.44-1.87,14.22-2a2.12,2.12,0,0,1,.64,0,2.77,2.77,0,0,1,1.3.64c1.13,1,.66,4.83-.62,7.76a5.45,5.45,0,0,1-1.29,1.95,5.69,5.69,0,0,1-2.58,1.3c-4.05,1-6.8,1.72-11,1.33A30.5,30.5,0,0,1,130.34,153.92Z"/><path d="M39.73,74.46c.18,0,.28.07.28.21v.47a.25.25,0,0,1-.28.28H39.5l-.4,0a1.42,1.42,0,0,1-.4-.12,1,1,0,0,1-.35-.26,1.09,1.09,0,0,1-.26-.45v.9a3.32,3.32,0,0,1-.14,1,2.38,2.38,0,0,1-.41.79,1.93,1.93,0,0,1-.68.52,2.08,2.08,0,0,1-.92.2,4.12,4.12,0,0,1-.51,0,2.39,2.39,0,0,1-.36,0l.11-.94.27,0a1.07,1.07,0,0,0,.25,0h.24a1,1,0,0,0,.94-.41,2.36,2.36,0,0,0,.25-1.23V70.87h1V73a2.47,2.47,0,0,0,.06.56,1.2,1.2,0,0,0,.23.45,1,1,0,0,0,.43.3,1.75,1.75,0,0,0,.66.11Z"/><path d="M39.56,75.42c-.19,0-.28-.07-.28-.21v-.47a.25.25,0,0,1,.28-.28h2a1.94,1.94,0,0,1-.43-.64,2.21,2.21,0,0,1-.19-.91,2.48,2.48,0,0,1,.19-.92,2.45,2.45,0,0,1,.52-.81,2.54,2.54,0,0,1,.82-.56,2.44,2.44,0,0,1,1-.22,2.21,2.21,0,0,1,.87.16A1.83,1.83,0,0,1,45,71a1.88,1.88,0,0,1,.41.7,2.63,2.63,0,0,1,.15.91v1.83h1.06c.19,0,.28.07.28.21v.47a.25.25,0,0,1-.28.28Zm5-1V72.57a1.75,1.75,0,0,0-.07-.44,1.34,1.34,0,0,0-.23-.4,1.09,1.09,0,0,0-.4-.29,1.31,1.31,0,0,0-.58-.12,1.5,1.5,0,0,0-.55.11,1.46,1.46,0,0,0-.47.32,1.56,1.56,0,0,0-.33.5,1.67,1.67,0,0,0-.12.65,1.44,1.44,0,0,0,.22.86,1.5,1.5,0,0,0,.47.47,2,2,0,0,0,.71.23Zm-1.75-5.88A.55.55,0,1,1,43,69,.53.53,0,0,1,42.86,68.58Z"/><path d="M46.7,75.42q-.27,0-.27-.21v-.47a.25.25,0,0,1,.27-.28h2a.63.63,0,0,0,.58-.24,1.42,1.42,0,0,0,.14-.67V72.06h1v1a2.35,2.35,0,0,0,.06.54,1.12,1.12,0,0,0,.65.76,1.82,1.82,0,0,0,.66.11H52c.3,0,.49-.08.58-.24a1.42,1.42,0,0,0,.14-.67v-2h1v1.49a2.38,2.38,0,0,0,.06.55,1.08,1.08,0,0,0,.65.75,1.73,1.73,0,0,0,.65.11h.3c.32,0,.52-.08.61-.25a1.35,1.35,0,0,0,.14-.66V70.87H57V73a2,2,0,0,0,.07.56,1.18,1.18,0,0,0,.22.45,1.08,1.08,0,0,0,.42.3,1.78,1.78,0,0,0,.66.11h.27c.19,0,.28.07.28.21v.47a.25.25,0,0,1-.28.28H58.3a2,2,0,0,1-.9-.2,1.16,1.16,0,0,1-.55-.72,1.78,1.78,0,0,1-.29.5,1.35,1.35,0,0,1-.36.28,1.33,1.33,0,0,1-.4.12l-.43,0H55a1.81,1.81,0,0,1-.89-.19,1.27,1.27,0,0,1-.56-.73,1.51,1.51,0,0,1-.65.74,1.9,1.9,0,0,1-.83.18h-.34a1.87,1.87,0,0,1-.9-.2,1.23,1.23,0,0,1-.55-.72,2.05,2.05,0,0,1-.3.49,1.35,1.35,0,0,1-.36.28,1.62,1.62,0,0,1-.43.12,3.64,3.64,0,0,1-.48,0Z"/><path d="M58.44,75.42q-.27,0-.27-.21v-.47a.25.25,0,0,1,.27-.28H60V66.83h1v8.59Z"/><path d="M62.85,66.83h.93v8.59h-.93Z"/><path d="M68.11,75.42a3.27,3.27,0,0,1-1.2-.2,2.38,2.38,0,0,1-.8-.53,2,2,0,0,1-.45-.74,2.62,2.62,0,0,1-.13-.83,3,3,0,0,1,.18-1.05,2.68,2.68,0,0,1,.5-.87,2.36,2.36,0,0,1,.77-.59,2.24,2.24,0,0,1,1-.21,2.42,2.42,0,0,1,.91.17A1.92,1.92,0,0,1,70,71.76a2.75,2.75,0,0,1,.15.93v2.79a3.14,3.14,0,0,1-.22,1.25,2.11,2.11,0,0,1-.63.83,2.55,2.55,0,0,1-1,.48,4.74,4.74,0,0,1-1.22.15l-.5,0a2.91,2.91,0,0,1-.57-.06l.1-.91.53,0h.5a3.8,3.8,0,0,0,.77-.07,1.72,1.72,0,0,0,.65-.27,1.43,1.43,0,0,0,.45-.57,2.4,2.4,0,0,0,.18-.93Zm1.11-1V73.07a2.06,2.06,0,0,0-.36-1.29,1.17,1.17,0,0,0-1-.46,1.38,1.38,0,0,0-1,.43,1.66,1.66,0,0,0-.32.49,1.71,1.71,0,0,0-.12.65,1.75,1.75,0,0,0,.13.72,1.39,1.39,0,0,0,.36.49,1.34,1.34,0,0,0,.52.26,2.11,2.11,0,0,0,.62.09Z"/><path d="M79.72,74.46c.19,0,.28.07.28.21v.47a.25.25,0,0,1-.28.28h-3a3.33,3.33,0,0,1-1.21-.2,2.38,2.38,0,0,1-.8-.53,1.89,1.89,0,0,1-.45-.74,2.63,2.63,0,0,1-.14-.83,3.05,3.05,0,0,1,.19-1.05,2.7,2.7,0,0,1,.51-.87,2.51,2.51,0,0,1,.78-.59,2.25,2.25,0,0,1,1-.21,2.43,2.43,0,0,1,.92.17,2,2,0,0,1,.69.47,2.18,2.18,0,0,1,.44.72,2.83,2.83,0,0,1,.15.93v1.77Zm-1.93,0V73.08a2.14,2.14,0,0,0-.34-1.3,1.15,1.15,0,0,0-1-.46,1.35,1.35,0,0,0-.52.11,1.42,1.42,0,0,0-.46.32,1.71,1.71,0,0,0-.32.5,1.67,1.67,0,0,0-.12.65,1.75,1.75,0,0,0,.13.72,1.39,1.39,0,0,0,.36.49,1.51,1.51,0,0,0,.52.27,2.37,2.37,0,0,0,.61.08Zm-2.62-5.88a.55.55,0,1,1,.16.39A.53.53,0,0,1,75.17,68.58Zm1.59,0a.54.54,0,0,1,.17-.39.5.5,0,0,1,.39-.16.49.49,0,0,1,.38.16.53.53,0,0,1,0,.78.49.49,0,0,1-.38.16.5.5,0,0,1-.39-.16A.54.54,0,0,1,76.76,68.58Z"/><path d="M83.77,74.46a2.86,2.86,0,0,1-.52-.84,3.93,3.93,0,0,1-.24-.87c-.12-.93-.56-1.39-1.31-1.39a3.25,3.25,0,0,0-.57.06,4.42,4.42,0,0,0-.68.21c0-.17-.08-.33-.12-.46s-.09-.29-.13-.45L81,70.5a4,4,0,0,1,1-.13,2.12,2.12,0,0,1,.83.16,1.56,1.56,0,0,1,.6.44,2.09,2.09,0,0,1,.38.67,4.19,4.19,0,0,1,.19.86c0,.17,0,.35.07.52a3.07,3.07,0,0,0,.14.52,2.08,2.08,0,0,0,.24.47,1.57,1.57,0,0,0,.42.39v1H79.54q-.27,0-.27-.21v-.47a.25.25,0,0,1,.27-.28Z"/><path d="M86.41,66.83h1v7.63h.93c.19,0,.28.07.28.21v.47a.25.25,0,0,1-.28.28H86.41Z"/><path d="M88.12,75.42q-.27,0-.27-.21v-.47a.25.25,0,0,1,.27-.28h1a.61.61,0,0,0,.58-.25,1.24,1.24,0,0,0,.15-.66V70.87h1V73a2,2,0,0,0,.07.56,1.07,1.07,0,0,0,.23.45,1,1,0,0,0,.42.3,1.76,1.76,0,0,0,.65.11h.26c.19,0,.28.07.28.21v.47a.25.25,0,0,1-.28.28h-.3a1.87,1.87,0,0,1-.92-.21,1.15,1.15,0,0,1-.53-.71,2.65,2.65,0,0,1-.29.48,1.26,1.26,0,0,1-.75.4,2.25,2.25,0,0,1-.46,0ZM89,77.35a.54.54,0,0,1,.17-.39.5.5,0,0,1,.39-.16A.53.53,0,0,1,90,77a.56.56,0,0,1,0,.78.53.53,0,0,1-.39.16.5.5,0,0,1-.39-.16A.54.54,0,0,1,89,77.35Zm1.6,0a.55.55,0,1,1,.16.39A.53.53,0,0,1,90.64,77.35Z"/><path d="M92.29,75.42q-.27,0-.27-.21v-.47a.25.25,0,0,1,.27-.28h2a.6.6,0,0,0,.57-.24,1.3,1.3,0,0,0,.15-.67V72.06h1v1a2.35,2.35,0,0,0,.06.54,1.2,1.2,0,0,0,.23.45,1.12,1.12,0,0,0,.42.31,1.78,1.78,0,0,0,.66.11h.22c.3,0,.49-.08.58-.24a1.42,1.42,0,0,0,.14-.67v-2h1v1.49a2.38,2.38,0,0,0,.06.55,1.08,1.08,0,0,0,.65.75,1.73,1.73,0,0,0,.65.11h.3c.31,0,.52-.08.61-.25a1.35,1.35,0,0,0,.14-.66V70.87h.93V73a2,2,0,0,0,.07.56,1.18,1.18,0,0,0,.22.45,1.08,1.08,0,0,0,.42.3,1.75,1.75,0,0,0,.66.11h.27c.18,0,.28.07.28.21v.47a.25.25,0,0,1-.28.28h-.31a2,2,0,0,1-.9-.2,1.16,1.16,0,0,1-.55-.72,2.06,2.06,0,0,1-.29.5,1.35,1.35,0,0,1-.36.28,1.42,1.42,0,0,1-.4.12l-.44,0h-.4a1.87,1.87,0,0,1-.9-.19,1.3,1.3,0,0,1-.55-.73,1.56,1.56,0,0,1-.65.74,1.9,1.9,0,0,1-.83.18h-.34a1.87,1.87,0,0,1-.9-.2,1.28,1.28,0,0,1-.56-.72,1.76,1.76,0,0,1-.29.49,1.25,1.25,0,0,1-.37.28,1.45,1.45,0,0,1-.42.12,3.87,3.87,0,0,1-.48,0Z"/><path d="M104,75.42q-.27,0-.27-.21v-.47a.25.25,0,0,1,.27-.28h1a.61.61,0,0,0,.58-.25,1.24,1.24,0,0,0,.15-.66V66.83h1V73a2,2,0,0,0,.07.56,1.07,1.07,0,0,0,.23.45,1,1,0,0,0,.42.3,1.76,1.76,0,0,0,.65.11h.26c.19,0,.28.07.28.21v.47a.25.25,0,0,1-.28.28h-.3a1.89,1.89,0,0,1-.92-.21,1.15,1.15,0,0,1-.53-.71,2.18,2.18,0,0,1-.29.48,1,1,0,0,1-.35.27,1.11,1.11,0,0,1-.4.13,2.15,2.15,0,0,1-.45,0Z"/><path d="M108.2,75.42q-.27,0-.27-.21v-.47a.25.25,0,0,1,.27-.28h1.55V66.83h1v8.59Z"/></g></g></svg>