<svg xmlns="http://www.w3.org/2000/svg" viewBox="0 0 31.62 25.76"><defs><style>.cls-1{fill:#00adee;}</style></defs><title>money</title><g id="Layer_2" data-name="Layer 2"><g id="Layer_1-2" data-name="Layer 1"><path class="cls-1" d="M19.28,15.73a28.38,28.38,0,0,0-5.89.4,13.34,13.34,0,0,0-5.27,2.38c-.27.2-.35.14-.48-.13Q5.06,12.7,2.46,7a.48.48,0,0,1,.13-.66,12.79,12.79,0,0,1,8.63-3.54c1.55-.05,3.09,0,4.64,0A17.8,17.8,0,0,0,25.62.09c.25-.16.33-.09.43.14q2.7,6,5.42,12c.11.24.1.38-.14.54A16.19,16.19,0,0,1,24,15.55C22.42,15.73,20.85,15.7,19.28,15.73Zm-.14-2.1h1.62A20.61,20.61,0,0,0,26,13a.48.48,0,0,0,.39-.41A6.92,6.92,0,0,1,27.81,9.5a.38.38,0,0,0,.05-.45c-.48-1.1-1-2.2-1.43-3.3a.41.41,0,0,0-.4-.28A6.64,6.64,0,0,1,22.67,4a.49.49,0,0,0-.53-.09,19.9,19.9,0,0,1-4.41.71c-1.82.12-3.65,0-5.48.09a16.05,16.05,0,0,0-4.61.7.47.47,0,0,0-.38.48A6.4,6.4,0,0,1,5.9,9.3a.39.39,0,0,0,0,.49c.33.7.67,1.39,1,2.1a1.18,1.18,0,0,0,1.1.89,6.35,6.35,0,0,1,3.17,1.5.6.6,0,0,0,.63.12A14,14,0,0,1,13.17,14,29.1,29.1,0,0,1,19.14,13.63Z"/><path class="cls-1" d="M5.86,25.76c-.4-.88-.78-1.71-1.15-2.54C3.17,19.82,1.64,16.42.09,13a.58.58,0,0,1,.14-.77c.39-.37.75-.77,1.13-1.16s.39-.39.63.13q1.67,3.69,3.35,7.39c.42.93.86,1.87,1.26,2.81.14.32.25.37.54.15a19.76,19.76,0,0,1,6.23-3.18,20.25,20.25,0,0,1,5.31-.68c1.54,0,3.09,0,4.64,0a18.25,18.25,0,0,0,7-1.7c.35-.16.51-.14.64.24a13.4,13.4,0,0,0,.56,1.36c.11.22.08.33-.15.45a15.91,15.91,0,0,1-5.28,1.77,31.27,31.27,0,0,1-4.43.27c-1.72,0-3.45,0-5.17.18a15.87,15.87,0,0,0-8.89,3.85C7,24.61,6.46,25.17,5.86,25.76Z"/><path class="cls-1" d="M16.41,5.42A4.86,4.86,0,0,1,20.53,8.3a2.83,2.83,0,0,1-2.63,4.25,4.8,4.8,0,0,1-4.59-2.73C12.13,7.57,13.52,5.4,16.41,5.42Z"/></g></g></svg>