<svg xmlns="http://www.w3.org/2000/svg" viewBox="0 0 39.72 26.55"><defs><style>.cls-1{fill:#00adee;}</style></defs><title>people</title><g id="Layer_2" data-name="Layer 2"><g id="Layer_1-2" data-name="Layer 1"><path class="cls-1" d="M19.35,14.08A7.19,7.19,0,0,1,13.27,6a7,7,0,1,1,7.88,8.08,12.44,12.44,0,0,1,4,1,12.18,12.18,0,0,1,7.3,11.1c0,.29-.07.38-.37.38q-11.77,0-23.55,0c-.31,0-.4-.09-.39-.39A12,12,0,0,1,13,16.5a11.64,11.64,0,0,1,6.26-2.4Z"/><path class="cls-1" d="M9.67,14.94a1.76,1.76,0,0,0-.62-.19A6.2,6.2,0,0,1,5.28,5.67,6.11,6.11,0,0,1,12.68,3c.3.11.17.24.1.39a7.75,7.75,0,0,0-.71,4.08,8,8,0,0,0,2.64,5.23c.33.31.34.3,0,.6A6.07,6.07,0,0,1,12,14.73a1,1,0,0,0-.34.11,15.54,15.54,0,0,1,1.89.41c0,.18-.2.22-.31.29a14,14,0,0,0-6.3,9c-.09.44-.17.88-.23,1.32,0,.18-.09.24-.27.24q-3.11,0-6.21,0C0,26.09,0,26,0,25.81a10.68,10.68,0,0,1,3.1-7.75A10.21,10.21,0,0,1,9.55,15Z"/><path class="cls-1" d="M30,14.76c.56.15,1.12.23,1.66.38a10.58,10.58,0,0,1,6.26,4.57,10.76,10.76,0,0,1,1.77,5.82c0,.48,0,.48-.45.48-1.69,0-3.37,0-5,0-.31,0-.4-.1-.44-.39a14.12,14.12,0,0,0-6.06-9.86c-.32-.23-.67-.43-1-.66a11.5,11.5,0,0,1,1.51-.34,6.58,6.58,0,0,1-3-1.26c-.21-.16-.2-.23,0-.4A8.23,8.23,0,0,0,27.62,3c-.13-.27-.07-.33.2-.38a6.16,6.16,0,0,1,2.89,12C30.48,14.67,30.25,14.71,30,14.76Z"/></g></g></svg>