<svg xmlns="http://www.w3.org/2000/svg" viewBox="0 0 109.71 111.79"><defs><style>.cls-1{fill:#bababa;}</style></defs><title>مستودع</title><g id="Layer_2" data-name="Layer 2"><g id="Layer_1-2" data-name="Layer 1"><path class="cls-1" d="M54.7,111.78H13.61a16.28,16.28,0,0,1-2.21-.1,2,2,0,0,1-2-2.17c0-.63,0-1.25,0-1.88,0-14.1,0-50.22,0-64.31a3.34,3.34,0,0,0-1.94-3.4C5.3,38.75,3.15,37.45,1,36.17a2,2,0,0,1-.67-2.84A65,65,0,0,1,18.92,11.55C30.65,2.93,43.85-.69,58.29.11c21,1.16,36.89,11.13,48.35,28.52.93,1.42,1.7,3,2.58,4.42.76,1.27.7,2.41-.61,3.21-2,1.21-4,2.44-6.08,3.45a3.61,3.61,0,0,0-2.35,3.78c.11,12.61.06,47.25,0,59.86,0,1.89,0,3.77,0,5.65s-.74,2.59-2.55,2.75c-.68.06-1.37,0-2.06,0Zm.1-45.95c7.93,0,15.86,0,23.8,0,2.32,0,2.92.6,3,2.78,0,2.91,0,5.82,0,8.73,0,1.58-.78,2.57-2.39,2.45-1.86-.15-2.15.77-2.14,2.34q.08,11.64,0,23.28c0,1.52.4,2.16,2,2.13q7.44-.12,14.89,0c1.6,0,2-.55,2-2.09,0-14,0-50,0-64a4.48,4.48,0,0,0-.32-2A41.53,41.53,0,0,0,76.87,20.06a42.69,42.69,0,0,0-12.52-4.38,2.2,2.2,0,0,1-2.09-2.47c.15-1.5,1.23-1.93,2.61-1.76A33.15,33.15,0,0,1,71,13,47,47,0,0,1,97.22,33.42c2,3.24,2,3.24,5.37,1.37,2.15-1.19,2.2-1.23.86-3.29C92.8,15.15,78.07,5.57,58.29,4.4A55.59,55.59,0,0,0,33.35,8.3,56.3,56.3,0,0,0,7.55,29.67C4.33,34.52,4.72,33.28,9,36l.15.09a1.32,1.32,0,0,0,2.08-.63A48.12,48.12,0,0,1,29.14,17a39.06,39.06,0,0,1,15.65-5.53c1.34-.16,2.46.13,2.62,1.71s-.8,2.28-2.18,2.54a41.76,41.76,0,0,0-5.92,1.61A43.34,43.34,0,0,0,14.93,37.59a7.62,7.62,0,0,0-1.26,3.84c.05,14,0,50.1,0,64.13,0,1.49.52,2,2,2q7.53-.09,15.06,0c1.48,0,2-.49,2-2-.05-7.94,0-15.87,0-23.8,0-1.3-.29-2-1.82-2-2.16,0-2.68-.61-2.71-2.82,0-2.56,0-5.13,0-7.7,0-3,.46-3.45,3.51-3.45Q43.25,65.82,54.8,65.83Zm-.09,9.72c6.85,0,13.7,0,20.55,0,1.6,0,2.22-.52,2-2.07a8.85,8.85,0,0,1,0-1c0-2.37,0-2.39-2.38-2.39h-39c-3.44,0-3.36,0-3.43,3.45,0,1.58.5,2.07,2.07,2C41.25,75.51,48,75.55,54.71,75.55Zm.18,4.29c-4.61,0-9.23,0-13.84,0s-4-.56-4,4.15c0,2.32.09,2.42,2.39,2.42q14.52,0,29.05,0c4.83,0,4.22.62,4.33-4.44,0-1.64-.54-2.19-2.17-2.17C65.37,79.89,60.13,79.84,54.89,79.84Zm0,21.44c-4.79,0-9.58,0-14.37,0-3.88,0-3.48-.11-3.5,3.55,0,2.62.06,2.69,2.67,2.69H68.74c4.71,0,3.9.1,4-4.09,0-1.64-.55-2.2-2.18-2.18C65.36,101.33,60.11,101.28,54.87,101.28Zm0-4.27H69c4.42,0,3.68.22,3.73-3.78,0-2.51,0-2.51-2.6-2.52q-14.54,0-29.08,0c-4.79,0-3.92-.4-4.1,4.12-.08,1.81.67,2.22,2.29,2.19C44.45,97,49.64,97,54.83,97Z"/></g></g></svg>