<?xml version="1.0" standalone="no"?>
<!DOCTYPE svg PUBLIC "-//W3C//DTD SVG 20010904//EN"
 "http://www.w3.org/TR/2001/REC-SVG-20010904/DTD/svg10.dtd">
<svg version="1.0" xmlns="http://www.w3.org/2000/svg"
 width="260.000000pt" height="260.000000pt" viewBox="0 0 260.000000 260.000000"
 preserveAspectRatio="xMidYMid meet">
<metadata>
Created by potrace 1.14, written by Peter Selinger 2001-2017
</metadata>
<g transform="translate(0.000000,260.000000) scale(0.100000,-0.100000)"
fill="#000000" stroke="none">
<path d="M1455 1945 c-33 -56 -38 -117 -16 -198 17 -59 62 -110 217 -247 102
-91 144 -140 144 -167 0 -5 -20 -40 -45 -77 -50 -77 -56 -95 -23 -72 12 9 33
16 45 16 29 0 153 -49 153 -61 0 -9 -102 -43 -163 -54 -40 -8 -77 8 -132 57
l-36 31 -32 -30 c-44 -41 -61 -45 -91 -22 -32 25 -46 92 -46 220 0 87 3 104
22 129 20 28 20 31 5 48 -22 24 -21 31 5 59 l21 23 -23 25 c-29 31 -41 31 -68
2 -27 -29 -27 -39 -3 -62 20 -17 20 -17 -1 -46 l-22 -29 23 -21 c18 -17 22
-28 17 -53 -15 -70 -18 -185 -7 -254 25 -160 84 -203 160 -116 l31 34 33 -36
c28 -30 42 -37 83 -41 50 -5 132 14 217 51 46 20 46 13 7 -68 -36 -76 -129
-172 -209 -215 -155 -82 -344 -83 -520 0 -80 37 -131 74 -288 205 -115 97
-126 104 -165 103 -24 0 -52 -4 -62 -8 -18 -7 -16 -9 13 -19 36 -13 79 -45
202 -153 115 -101 270 -183 394 -209 88 -19 238 -17 310 4 150 44 291 161 359
297 20 39 36 78 36 85 0 7 19 18 43 24 67 17 107 38 116 62 8 22 6 23 -68 29
-51 4 -102 17 -154 38 -43 17 -92 31 -108 31 -34 0 -35 4 -9 37 13 17 20 41
20 68 0 58 -52 127 -176 237 -133 116 -170 156 -189 202 -20 47 -12 61 9 15
21 -47 26 -52 161 -164 222 -183 257 -224 306 -349 43 -112 80 -120 60 -14
-34 176 -122 285 -388 486 -96 73 -126 111 -133 172 l-5 45 -30 -50z"/>
<path d="M742 1513 c-2 -31 -6 -43 -17 -43 -8 0 -15 7 -15 15 0 8 -4 15 -10
15 -5 0 -10 -7 -10 -15 0 -21 -18 -19 -23 3 -4 16 -5 16 -6 0 -1 -21 -17 -24
-25 -5 -5 10 -7 10 -12 0 -9 -20 -41 -15 -47 7 -3 11 -13 20 -22 20 -9 0 -19
-9 -22 -20 -7 -27 -31 -25 -36 3 -3 17 -5 15 -6 -9 0 -16 -6 -35 -13 -42 -9
-9 -9 -12 0 -12 7 0 15 6 17 13 4 9 39 12 126 12 82 0 123 4 126 11 2 7 3 29
0 50 l-4 39 -1 -42z m-172 -28 c0 -8 -7 -15 -15 -15 -16 0 -20 12 -8 23 11 12
23 8 23 -8z"/>
<path d="M773 1505 c0 -27 2 -38 4 -22 2 15 2 37 0 50 -2 12 -4 0 -4 -28z"/>
<path d="M1032 1509 c-1 -30 3 -48 11 -51 6 -2 66 -4 132 -3 l120 0 1 50 c1
45 1 46 -3 8 -3 -28 -9 -43 -18 -43 -9 0 -15 15 -18 43 l-4 42 -1 -42 c-2 -35
-6 -43 -21 -43 -12 0 -21 8 -24 23 l-4 22 -2 -22 c-1 -25 -21 -32 -21 -8 0 8
-4 15 -10 15 -5 0 -10 -7 -10 -15 0 -18 -16 -20 -23 -2 -4 10 -6 10 -6 0 -2
-22 -41 -14 -51 10 l-9 22 0 -22 c-2 -43 -30 -26 -34 20 l-4 42 -1 -46z"/>
<path d="M918 1533 c7 -3 16 -2 19 1 4 3 -2 6 -13 5 -11 0 -14 -3 -6 -6z"/>
<path d="M804 1495 c-7 -18 3 -35 22 -35 8 0 14 -4 14 -10 0 -5 -7 -10 -15
-10 -8 0 -15 -4 -15 -10 0 -12 3 -12 24 -4 11 4 16 19 16 45 0 33 -3 39 -20
39 -11 0 -23 -7 -26 -15z m36 -10 c0 -8 -4 -15 -9 -15 -13 0 -22 16 -14 24 11
11 23 6 23 -9z"/>
<path d="M907 1503 c-9 -9 -9 -43 1 -44 4 0 24 -2 45 -5 50 -6 67 4 56 34 -5
12 -16 22 -24 22 -15 0 -15 -1 -1 -16 21 -21 20 -24 -8 -24 -15 0 -26 7 -29
20 -5 19 -27 27 -40 13z m31 -21 c2 -7 -3 -12 -12 -12 -9 0 -16 7 -16 16 0 17
22 14 28 -4z"/>
<path d="M1529 1495 c-77 -42 -100 -176 -42 -245 30 -36 69 -39 108 -8 29 23
64 90 65 123 0 40 -21 93 -46 119 -30 29 -47 32 -85 11z m69 -97 c17 -14 15
-38 -5 -60 -30 -33 -93 -16 -93 27 0 45 57 65 98 33z"/>
<path d="M1068 1433 c7 -3 16 -2 19 1 4 3 -2 6 -13 5 -11 0 -14 -3 -6 -6z"/>
<path d="M470 1326 c0 -2 9 -6 20 -9 11 -3 18 -1 14 4 -5 9 -34 13 -34 5z"/>
<path d="M637 1303 c6 -16 4 -16 44 2 l34 14 -41 -2 c-28 -1 -40 -6 -37 -14z"/>
<path d="M470 1306 c0 -2 8 -10 18 -17 15 -13 16 -12 3 4 -13 16 -21 21 -21
13z"/>
<path d="M548 1283 c7 -3 16 -2 19 1 4 3 -2 6 -13 5 -11 0 -14 -3 -6 -6z"/>
<path d="M604 1274 c-18 -14 -18 -15 4 -4 12 6 22 13 22 15 0 8 -5 6 -26 -11z"/>
<path d="M590 1226 c0 -2 8 -10 18 -17 15 -13 16 -12 3 4 -13 16 -21 21 -21
13z"/>
<path d="M590 1186 c0 -2 8 -10 18 -17 15 -13 16 -12 3 4 -13 16 -21 21 -21
13z"/>
<path d="M640 1145 c7 -9 15 -13 17 -11 7 7 -7 26 -19 26 -6 0 -6 -6 2 -15z"/>
<path d="M484 1125 c-9 -13 -14 -28 -12 -33 1 -5 10 6 19 24 19 40 16 44 -7 9z"/>
<path d="M1498 933 c-41 -5 -53 -15 -63 -55 -8 -32 16 -43 76 -33 49 8 69 28
69 66 0 31 2 31 -82 22z"/>
</g>
</svg>
